<?xml version="1.0" encoding="iso-8859-1"?>
<!-- Generator: Adobe Illustrator 19.0.0, SVG Export Plug-In . SVG Version: 6.00 Build 0)  -->
<svg version="1.1" id="Layer_1" xmlns="http://www.w3.org/2000/svg" xmlns:xlink="http://www.w3.org/1999/xlink" x="0px" y="0px"
	 viewBox="0 0 512 512" style="enable-background:new 0 0 512 512;" xml:space="preserve">
<circle style="fill:#273B7A;" cx="256" cy="256" r="256"/>
<path style="fill:#121149;" d="M259.974,511.95c134.932-2.055,244.545-108.485,251.652-242.135L409.61,167.8l-5.891,2.619
	l-48.056-47.947L209.256,309.405l-86.7-86.7l-30.027,36.112l-7.306-7.306l-4.274,9.661l117.07,117.07l-14.643,7.871l-63.486-63.486
	l-11.842,10.343l3.789,3.789l-16.794,10.264L259.974,511.95z"/>
<g>
	<circle style="fill:#FFC61B;" cx="101.393" cy="241.554" r="28.343"/>
	<circle style="fill:#FFC61B;" cx="415.341" cy="276.428" r="28.343"/>
	<circle style="fill:#FFC61B;" cx="395.723" cy="178.321" r="17.442"/>
	<circle style="fill:#FFC61B;" cx="107.934" cy="335.3" r="17.442"/>
</g>
<g>
	<path style="fill:#EAA22F;" d="M101.393,213.206c15.653,0,28.343,12.69,28.343,28.343s-12.69,28.343-28.343,28.343V213.206z"/>
	<path style="fill:#EAA22F;" d="M415.348,248.091c15.653,0,28.343,12.69,28.343,28.343c0,15.653-12.69,28.343-28.343,28.343V248.091
		z"/>
	<path style="fill:#EAA22F;" d="M395.724,160.882c9.633,0,17.442,7.809,17.442,17.442c0,9.633-7.809,17.442-17.442,17.442V160.882z"
		/>
	<path style="fill:#EAA22F;" d="M107.934,317.857c9.633,0,17.442,7.809,17.442,17.442s-7.809,17.442-17.442,17.442
		C107.934,352.742,107.934,317.857,107.934,317.857z"/>
</g>
<path style="fill:#FF5419;" d="M343.135,405.068h-173.89c-9.778,0-17.706-7.927-17.706-17.706v-252.38
	c0-9.778,7.927-17.706,17.706-17.706h173.89c9.778,0,17.706,7.927,17.706,17.706v252.38
	C360.841,397.14,352.915,405.068,343.135,405.068z"/>
<path style="fill:#C92F00;" d="M343.135,117.276h-87.709v287.791h87.709c9.778,0,17.706-7.927,17.706-17.706V134.982
	C360.841,125.204,352.915,117.276,343.135,117.276z"/>
<rect x="172.149" y="137.102" style="fill:#9EE4E8;" width="168.081" height="53.907"/>
<rect x="255.431" y="137.102" style="fill:#71E2EF;" width="84.799" height="53.907"/>
<g>
	<rect x="307.717" y="205.921" style="fill:#FFC61B;" width="32.187" height="27.651"/>
	<rect x="262.534" y="205.921" style="fill:#FFC61B;" width="32.187" height="27.651"/>
</g>
<g>
	<rect x="217.35" y="205.921" style="fill:#FEE187;" width="32.187" height="27.651"/>
	<rect x="172.149" y="205.921" style="fill:#FEE187;" width="32.187" height="27.651"/>
</g>
<g>
	<rect x="307.717" y="243.743" style="fill:#FFC61B;" width="32.187" height="27.651"/>
	<rect x="262.534" y="243.743" style="fill:#FFC61B;" width="32.187" height="27.651"/>
</g>
<g>
	<rect x="217.35" y="243.743" style="fill:#FEE187;" width="32.187" height="27.651"/>
	<rect x="172.149" y="243.743" style="fill:#FEE187;" width="32.187" height="27.651"/>
</g>
<rect x="262.534" y="281.548" style="fill:#FFC61B;" width="32.187" height="27.651"/>
<g>
	<rect x="217.35" y="281.548" style="fill:#FEE187;" width="32.187" height="27.651"/>
	<rect x="172.149" y="281.548" style="fill:#FEE187;" width="32.187" height="27.651"/>
</g>
<rect x="262.534" y="319.371" style="fill:#FFC61B;" width="32.187" height="27.651"/>
<g>
	<rect x="217.35" y="319.371" style="fill:#FEE187;" width="32.187" height="27.651"/>
	<rect x="172.149" y="319.371" style="fill:#FEE187;" width="32.187" height="27.651"/>
</g>
<rect x="307.717" y="281.548" style="fill:#EAA22F;" width="32.187" height="103.283"/>
<rect x="262.534" y="357.176" style="fill:#FFC61B;" width="32.187" height="27.651"/>
<g>
	<rect x="217.35" y="357.176" style="fill:#FEE187;" width="32.187" height="27.651"/>
	<rect x="172.149" y="357.176" style="fill:#FEE187;" width="32.187" height="27.651"/>
</g>
<g>
</g>
<g>
</g>
<g>
</g>
<g>
</g>
<g>
</g>
<g>
</g>
<g>
</g>
<g>
</g>
<g>
</g>
<g>
</g>
<g>
</g>
<g>
</g>
<g>
</g>
<g>
</g>
<g>
</g>
</svg>
