<?xml version="1.0" encoding="iso-8859-1"?>
<!-- Generator: Adobe Illustrator 19.0.0, SVG Export Plug-In . SVG Version: 6.00 Build 0)  -->
<svg version="1.1" id="Layer_1" xmlns="http://www.w3.org/2000/svg" xmlns:xlink="http://www.w3.org/1999/xlink" x="0px" y="0px"
	 viewBox="0 0 512 512" style="enable-background:new 0 0 512 512;" xml:space="preserve">
<circle style="fill:#FEE187;" cx="256" cy="256" r="256"/>
<path style="fill:#FFC61B;" d="M346.745,495.432c81.827-31.03,143.598-102.788,160.571-190.533L320.317,117.9l-111.456,66.969
	l-0.007-0.007l-0.64,0.395l-35.968,21.613l0.362,0.362l-68.613,42.344l53.653,53.133l-1.205,2.424L346.745,495.432z"/>
<path style="fill:#6CAF5F;" d="M203.278,199.111h190.779c10.156,0,18.389,8.233,18.389,18.389v105.446
	c0,10.156-8.233,18.389-18.389,18.389h-38.502v49.131l-49.131-49.131H203.278c-10.156,0-18.389-8.233-18.389-18.389V217.5
	C184.889,207.344,193.122,199.111,203.278,199.111z"/>
<path style="fill:#477F3C;" d="M394.056,199.111h-92.948v142.222h5.315l49.131,49.131v-49.131h38.5
	c10.156,0,18.389-8.233,18.389-18.389V217.498C412.444,207.344,404.211,199.111,394.056,199.111z"/>
<path style="fill:#C92F00;" d="M308.722,113.778H117.944c-10.156,0-18.389,8.233-18.389,18.389v105.446
	c0,10.156,8.233,18.389,18.389,18.389h38.5v49.13L205.576,256h103.146c10.156,0,18.389-8.233,18.389-18.389V132.167
	C327.111,122.011,318.878,113.778,308.722,113.778z"/>
<path style="fill:#930000;" d="M308.722,113.778H222.67V256h86.052c10.156,0,18.389-8.233,18.389-18.389V132.167
	C327.111,122.011,318.878,113.778,308.722,113.778z"/>
<g>
</g>
<g>
</g>
<g>
</g>
<g>
</g>
<g>
</g>
<g>
</g>
<g>
</g>
<g>
</g>
<g>
</g>
<g>
</g>
<g>
</g>
<g>
</g>
<g>
</g>
<g>
</g>
<g>
</g>
</svg>
