<?xml version="1.0" encoding="iso-8859-1"?>
<!-- Generator: Adobe Illustrator 19.0.0, SVG Export Plug-In . SVG Version: 6.00 Build 0)  -->
<svg version="1.1" id="Layer_1" xmlns="http://www.w3.org/2000/svg" xmlns:xlink="http://www.w3.org/1999/xlink" x="0px" y="0px"
	 viewBox="0 0 512.002 512.002" style="enable-background:new 0 0 512.002 512.002;" xml:space="preserve">
<circle style="fill:#273B7A;" cx="256" cy="256.001" r="256"/>
<path style="fill:#121149;" d="M381.374,125.453l-37.385,37.385l-82.98-82.227l0.528,13.383l-4.368-4.368l-0.881,50.845
	l53.243,53.243l-43.787,56.551l-95.453-94.896l-7.571,11.912l85.588,85.588l6.116,5.003l-14.369-14.369l-63.243,7.828
	l-17.923-16.787l-1.012,8.876l-55.874,1.929l155.605,155.807l-22.838,15.991l86.459,86.459
	c109.765-28.839,190.736-128.719,190.773-247.525L381.374,125.453z"/>
<path style="fill:#FFC61B;" d="M341.333,240.701c0-48.266-40.072-87.173-88.762-85.266c-43.625,1.708-79.357,36.823-81.77,80.413
	c-1.429,25.812,8.623,49.295,25.512,65.822c19.63,19.208,31.242,25.345,31.242,52.808v8.654h56.889v-8.056
	c0-27.167,10.549-33.773,30.263-52.464C331.105,287.067,341.333,265.082,341.333,240.701z"/>
<path style="fill:#EAA22F;" d="M256.288,155.385v207.746h28.157v-8.054c0-27.167,10.549-33.773,30.263-52.464
	c16.398-15.546,26.626-37.531,26.626-61.912C341.333,193.67,303.282,155.544,256.288,155.385z"/>
<path id="SVGCleanerId_0" style="fill:#FFEDB5;" d="M256,140.499c-3.808,0-6.896-3.088-6.896-6.896V85.334
	c0-3.808,3.088-6.896,6.896-6.896c3.808,0,6.896,3.088,6.896,6.896v48.269C262.896,137.412,259.808,140.499,256,140.499z"/>
<g>
	<path style="fill:#FEE187;" d="M342.369,171.355c-1.764,0-3.531-0.674-4.875-2.02c-2.694-2.693-2.694-7.059,0-9.75l34.132-34.132
		c2.691-2.694,7.061-2.694,9.75,0c2.694,2.693,2.694,7.059,0,9.75l-34.132,34.132C345.898,170.683,344.133,171.355,342.369,171.355z
		"/>
	<path style="fill:#FEE187;" d="M405.294,247.209L405.294,247.209l-48.281-0.012c-3.808-0.002-6.896-3.089-6.894-6.897
		c0.002-3.808,3.087-6.894,6.896-6.894h0.002l48.28,0.012c3.808,0.002,6.896,3.089,6.894,6.897S409.1,247.209,405.294,247.209z"/>
</g>
<g>
	<path id="SVGCleanerId_0_1_" style="fill:#FFEDB5;" d="M256,140.499c-3.808,0-6.896-3.088-6.896-6.896V85.334
		c0-3.808,3.088-6.896,6.896-6.896c3.808,0,6.896,3.088,6.896,6.896v48.269C262.896,137.412,259.808,140.499,256,140.499z"/>
</g>
<path style="fill:#FEE187;" d="M256.288,78.468v62.002c3.672-0.153,6.608-3.156,6.608-6.866V85.334
	C262.896,81.624,259.96,78.621,256.288,78.468z"/>
<g>
	<path style="fill:#FFEDB5;" d="M169.631,171.355c-1.764,0-3.531-0.674-4.875-2.02l-34.132-34.13c-2.694-2.693-2.694-7.059,0-9.75
		c2.691-2.694,7.061-2.694,9.75,0l34.132,34.132c2.694,2.693,2.694,7.059,0,9.75C173.161,170.683,171.396,171.355,169.631,171.355z"
		/>
	<path style="fill:#FFEDB5;" d="M106.706,247.209c-3.808,0-6.894-3.086-6.896-6.894c-0.002-3.808,3.086-6.896,6.894-6.897
		l48.28-0.012h0.002c3.808,0,6.894,3.086,6.896,6.894s-3.086,6.896-6.894,6.897L106.706,247.209L106.706,247.209z"/>
</g>
<path style="fill:#E09112;" d="M256,420.634c-2.92,0-5.423-2.093-5.939-4.968l-28.444-158.599c-0.315-1.76,0.165-3.567,1.312-4.937
	c1.146-1.37,2.841-2.162,4.627-2.162h56.889c1.786,0,3.482,0.791,4.629,2.162s1.626,3.179,1.312,4.937l-28.444,158.599
	C261.422,418.541,258.92,420.634,256,420.634z M234.768,262.035L256,380.422l21.232-118.388H234.768z"/>
<path style="fill:#FF5419;" d="M289.071,252.129c-1.146-1.37-2.841-2.162-4.627-2.162h-28.157v12.067h20.944l-20.944,116.783v41.791
	c2.794-0.134,5.153-2.164,5.651-4.942l28.444-158.599C290.699,255.308,290.22,253.499,289.071,252.129z"/>
<path style="fill:#FFFFFF;" d="M256,426.668L256,426.668c-15.71,0-28.444-12.734-28.444-28.444v-41.77h56.889v41.77
	C284.444,413.933,271.71,426.668,256,426.668z"/>
<path style="fill:#D0D1D3;" d="M256.288,356.453v70.201c15.575-0.157,28.157-12.819,28.157-28.431v-41.77H256.288z"/>
<g>
</g>
<g>
</g>
<g>
</g>
<g>
</g>
<g>
</g>
<g>
</g>
<g>
</g>
<g>
</g>
<g>
</g>
<g>
</g>
<g>
</g>
<g>
</g>
<g>
</g>
<g>
</g>
<g>
</g>
</svg>
