<?xml version="1.0" encoding="iso-8859-1"?>
<!-- Generator: Adobe Illustrator 19.0.0, SVG Export Plug-In . SVG Version: 6.00 Build 0)  -->
<svg version="1.1" id="Layer_1" xmlns="http://www.w3.org/2000/svg" xmlns:xlink="http://www.w3.org/1999/xlink" x="0px" y="0px"
	 viewBox="0 0 512 512" style="enable-background:new 0 0 512 512;" xml:space="preserve">
<circle style="fill:#273B7A;" cx="256" cy="256" r="256"/>
<path style="fill:#121149;" d="M257.846,511.976C398.379,510.981,512,396.767,512,256c0-12.9-0.965-25.574-2.807-37.96
	l-99.088-99.09l-55.268,64.515l-88.952-88.952l-18.325,17.401l90.793,90.793l-57.816,67.491L137.64,126.207l-36.295,12.069
	l152.848,152.262L99.271,353.401L257.846,511.976z"/>
<path style="fill:#FFC61B;" d="M247.38,353.401h17.239v76.714c0,4.76-3.86,8.62-8.62,8.62l0,0c-4.76,0-8.62-3.86-8.62-8.62V353.401z
	"/>
<g>
	<path style="fill:#EAA22F;" d="M255.426,353.401v85.275c0.193,0.014,0.378,0.059,0.574,0.059c4.76,0,8.62-3.86,8.62-8.62v-76.714
		H255.426z"/>
	<path style="fill:#EAA22F;" d="M264.07,311.263l16.417-5.261l38.941,121.48c1.453,4.534-1.043,9.387-5.577,10.84l0,0
		c-4.534,1.453-9.387-1.043-10.84-5.577L264.07,311.263z"/>
</g>
<path style="fill:#FFC61B;" d="M247.93,311.263l-16.417-5.261l-38.941,121.48c-1.453,4.534,1.043,9.387,5.577,10.84l0,0
	c4.534,1.453,9.387-1.043,10.84-5.577L247.93,311.263z"/>
<rect x="113.778" y="130.586" style="fill:#FFFFFF;" width="284.444" height="217.212"/>
<rect x="255.431" y="130.586" style="fill:#D0D1D3;" width="142.791" height="217.212"/>
<g>
	<polygon style="fill:#59595B;" points="350.013,289.397 276.976,232.96 205.536,256.774 145.88,211.154 151.116,204.307 
		207.143,247.151 278.609,223.33 355.283,282.576 	"/>
	<polygon style="fill:#59595B;" points="207.143,247.151 151.116,204.307 145.88,211.154 205.536,256.774 255.426,240.144 
		255.426,231.057 	"/>
</g>
<polygon style="fill:#272525;" points="278.609,223.33 255.426,231.057 255.426,240.144 276.976,232.96 350.013,289.397 
	355.283,282.576 "/>
<path style="fill:#FFC61B;" d="M270.222,118.949h-28.444v-14.222c0-7.854,6.368-14.222,14.222-14.222l0,0
	c7.854,0,14.222,6.368,14.222,14.222V118.949z"/>
<path style="fill:#EAA22F;" d="M270.222,104.727c0-7.854-6.368-14.222-14.222-14.222c-0.193,0-0.383,0.021-0.574,0.029v28.415
	h14.796V104.727z"/>
<g>
	<path style="fill:#71E2EF;" d="M401.382,142.079H110.618c-7.299,0-13.217-5.916-13.217-13.217l0,0
		c0-7.299,5.916-13.217,13.217-13.217h290.766c7.299,0,13.217,5.916,13.217,13.217l0,0
		C414.599,136.161,408.681,142.079,401.382,142.079z"/>
	<path style="fill:#71E2EF;" d="M401.382,359.865H110.618c-7.299,0-13.217-5.916-13.217-13.217l0,0
		c0-7.299,5.916-13.217,13.217-13.217h290.766c7.299,0,13.217,5.916,13.217,13.217l0,0
		C414.599,353.949,408.681,359.865,401.382,359.865z"/>
</g>
<g>
	<path style="fill:#38C6D9;" d="M401.382,115.645H255.426v26.433h145.956c7.299,0,13.217-5.916,13.217-13.217
		C414.599,121.559,408.681,115.645,401.382,115.645z"/>
	<path style="fill:#38C6D9;" d="M401.382,333.433H255.426v26.433h145.956c7.299,0,13.217-5.916,13.217-13.217
		S408.681,333.433,401.382,333.433z"/>
</g>
<circle style="fill:#C92F00;" cx="277.79" cy="228.142" r="11.909"/>
<circle style="fill:#FF7F4F;" cx="206.334" cy="251.966" r="11.909"/>
<circle style="fill:#EAA22F;" cx="352.642" cy="285.996" r="11.909"/>
<circle style="fill:#FF314F;" cx="148.497" cy="207.731" r="11.909"/>
<g>
</g>
<g>
</g>
<g>
</g>
<g>
</g>
<g>
</g>
<g>
</g>
<g>
</g>
<g>
</g>
<g>
</g>
<g>
</g>
<g>
</g>
<g>
</g>
<g>
</g>
<g>
</g>
<g>
</g>
</svg>
