<?xml version="1.0" encoding="iso-8859-1"?>
<!-- Generator: Adobe Illustrator 19.0.0, SVG Export Plug-In . SVG Version: 6.00 Build 0)  -->
<svg version="1.1" id="Layer_1" xmlns="http://www.w3.org/2000/svg" xmlns:xlink="http://www.w3.org/1999/xlink" x="0px" y="0px"
	 viewBox="0 0 512 512" style="enable-background:new 0 0 512 512;" xml:space="preserve">
<circle style="fill:#F79172;" cx="256" cy="256" r="256"/>
<path style="fill:#FF6262;" d="M512,256c0-9.561-0.541-18.994-1.562-28.284l-96.056-96.477L244.348,244.886L141.091,141.629
	l-45.042,1.917L216.123,263.62l-32.93,21.857l36.142,35.597L97.363,361.913l52.196,51.116l-15.408,9.83l87.5,86.842
	c11.236,1.507,22.699,2.3,34.349,2.3C397.384,512,512,397.384,512,256z"/>
<path style="fill:#FFEDB5;" d="M170.548,425.608h-30.077c-5.884,0-10.047-5.754-8.204-11.343l40.851-123.938
	c1.167-3.541,4.475-5.934,8.204-5.934h30.077c5.884,0,10.047,5.754,8.204,11.343l-40.851,123.938
	C177.585,423.215,174.277,425.608,170.548,425.608z"/>
<path style="fill:#FEE187;" d="M341.452,425.608h30.077c5.884,0,10.047-5.754,8.204-11.343l-40.851-123.938
	c-1.167-3.541-4.475-5.934-8.204-5.934h-30.077c-5.884,0-10.047,5.754-8.204,11.343l40.851,123.938
	C334.415,423.215,337.723,425.608,341.452,425.608z"/>
<rect x="111.468" y="139.705" style="fill:#386895;" width="289.082" height="215.299"/>
<g>
	<rect x="255.431" y="139.705" style="fill:#273B7A;" width="145.118" height="215.299"/>
	<path style="fill:#273B7A;" d="M407.83,148.268H104.17c-5.167,0-9.356-4.189-9.356-9.356v-0.995c0-5.167,4.189-9.356,9.356-9.356
		H407.83c5.167,0,9.356,4.189,9.356,9.356v0.995C417.185,144.079,412.996,148.268,407.83,148.268z"/>
	<path style="fill:#273B7A;" d="M407.83,364.853H104.17c-5.167,0-9.356-4.189-9.356-9.356v-0.995c0-5.167,4.189-9.356,9.356-9.356
		H407.83c5.167,0,9.356,4.189,9.356,9.356v0.995C417.185,360.665,412.996,364.853,407.83,364.853z"/>
</g>
<g>
	<path style="fill:#121149;" d="M407.83,128.562H255.426v19.708H407.83c5.167,0,9.356-4.189,9.356-9.356v-0.996
		C417.185,132.749,412.996,128.562,407.83,128.562z"/>
	<path style="fill:#121149;" d="M407.83,345.147H255.426v19.708H407.83c5.167,0,9.356-4.189,9.356-9.356v-0.996
		C417.185,349.334,412.996,345.147,407.83,345.147z"/>
</g>
<g>
	<circle style="fill:#FFFFFF;" cx="173.821" cy="181.355" r="10.343"/>
	<circle style="fill:#FFFFFF;" cx="220.039" cy="259.224" r="10.343"/>
</g>
<g>
	<circle style="fill:#D0D1D3;" cx="358.09" cy="230.055" r="10.343"/>
	<circle style="fill:#D0D1D3;" cx="291.961" cy="196.715" r="10.343"/>
	<path style="fill:#D0D1D3;" d="M366.373,268.017l-9.051-18.101c-0.45-0.898-1.267-1.555-2.243-1.801
		c-0.972-0.248-2.007-0.053-2.829,0.526l-15.9,11.205c-1.555,1.098-1.929,3.248-0.831,4.805c1.096,1.555,3.243,1.932,4.805,0.831
		l8.144-5.739c-0.433,4.393-4.844,31.835-47.537,45.316c-1.815,0.574-2.824,2.51-2.25,4.327c0.465,1.47,1.824,2.41,3.286,2.41
		c0.345,0,0.695-0.052,1.041-0.162c44.792-14.145,51.298-42.779,52.24-50.443l4.954,9.911c0.605,1.208,1.822,1.907,3.088,1.905
		c0.517,0,1.043-0.116,1.539-0.364C366.535,271.791,367.226,269.721,366.373,268.017z"/>
</g>
<g>
	<path style="fill:#FFFFFF;" d="M266.997,203.785c-0.234-0.931-0.848-1.722-1.689-2.182l-18.963-10.343
		c-1.674-0.912-3.767-0.295-4.679,1.376c-0.912,1.672-0.297,3.767,1.376,4.679l11.91,6.496c-6.349,0.631-23.759,3.303-42.205,14.36
		c-20.923,12.545-47.049,38.683-52.689,91.969c-0.2,1.895,1.174,3.593,3.065,3.793c0.124,0.012,0.247,0.019,0.369,0.019
		c1.741,0,3.236-1.315,3.424-3.084c4.274-40.377,20.795-69.52,49.109-86.619c17.237-10.411,33.863-12.964,39.588-13.56
		l-7.346,11.312c-1.038,1.596-0.583,3.732,1.015,4.77c0.579,0.376,1.231,0.555,1.874,0.555c1.127,0,2.234-0.553,2.896-1.57
		l12.498-19.246C267.069,205.702,267.233,204.716,266.997,203.785z"/>
	<path style="fill:#FFFFFF;" d="M248.265,221.998c-1.038,1.596-0.583,3.732,1.015,4.77c0.579,0.376,1.231,0.555,1.874,0.555
		c1.127,0,2.234-0.553,2.896-1.57l1.377-2.12V210.97L248.265,221.998z"/>
</g>
<path style="fill:#D0D1D3;" d="M266.997,203.785c-0.234-0.931-0.848-1.722-1.689-2.182l-9.88-5.389v14.493
	c0.057-0.007,0.129-0.016,0.184-0.021l-0.184,0.284v12.662l11.121-17.125C267.069,205.702,267.233,204.716,266.997,203.785z"/>
<path style="fill:#FFFFFF;" d="M260.875,307.279l7.044-7.044c1.346-1.346,1.346-3.529,0-4.875c-1.346-1.346-3.529-1.346-4.875,0
	L256,302.404l-7.044-7.044c-1.346-1.346-3.529-1.346-4.875,0c-1.346,1.346-1.346,3.529,0,4.875l7.044,7.044l-7.044,7.044
	c-1.346,1.346-1.346,3.529,0,4.875c0.674,0.674,1.555,1.01,2.438,1.01c0.883,0,1.764-0.336,2.438-1.01l7.044-7.044l7.044,7.044
	c0.674,0.674,1.555,1.01,2.438,1.01s1.764-0.336,2.438-1.01c1.346-1.346,1.346-3.529,0-4.875L260.875,307.279z"/>
<path style="fill:#D0D1D3;" d="M260.875,307.279l7.044-7.044c1.346-1.346,1.346-3.529,0-4.875c-1.346-1.346-3.529-1.346-4.875,0
	L256,302.404l-0.574-0.574v10.899l0.574-0.574l7.044,7.044c0.674,0.674,1.555,1.01,2.438,1.01s1.764-0.336,2.438-1.01
	c1.346-1.346,1.346-3.529,0-4.875L260.875,307.279z"/>
<path style="fill:#FFFFFF;" d="M153.429,222.151l7.044-7.044c1.346-1.346,1.346-3.529,0-4.875c-1.346-1.346-3.529-1.346-4.875,0
	l-7.044,7.044l-7.044-7.044c-1.346-1.346-3.529-1.346-4.875,0c-1.346,1.346-1.346,3.529,0,4.875l7.044,7.044l-7.044,7.042
	c-1.346,1.346-1.346,3.529,0,4.875c0.674,0.674,1.555,1.01,2.438,1.01c0.883,0,1.764-0.336,2.438-1.01l7.044-7.042l7.044,7.044
	c0.674,0.674,1.555,1.01,2.438,1.01s1.764-0.336,2.438-1.01c1.346-1.346,1.346-3.529,0-4.875L153.429,222.151z"/>
<g>
	<path style="fill:#D0D1D3;" d="M350.422,180.489l7.044-7.044c1.346-1.346,1.346-3.529,0-4.875s-3.529-1.346-4.875,0l-7.044,7.044
		l-7.044-7.044c-1.346-1.346-3.529-1.346-4.875,0c-1.346,1.346-1.346,3.529,0,4.875l7.044,7.044l-7.044,7.044
		c-1.346,1.346-1.346,3.529,0,4.875c0.674,0.674,1.555,1.01,2.438,1.01s1.764-0.336,2.438-1.01l7.044-7.044l7.044,7.044
		c0.674,0.674,1.555,1.01,2.438,1.01c0.883,0,1.764-0.336,2.438-1.01c1.346-1.346,1.346-3.529,0-4.875L350.422,180.489z"/>
	<path style="fill:#D0D1D3;" d="M294.553,251.458l4.458-4.458c1.346-1.346,1.346-3.529,0-4.875s-3.529-1.346-4.875,0l-4.458,4.458
		l-4.458-4.458c-1.346-1.346-3.529-1.346-4.875,0s-1.346,3.529,0,4.875l4.458,4.458l-4.458,4.458c-1.346,1.346-1.346,3.529,0,4.875
		c0.674,0.674,1.555,1.01,2.438,1.01s1.764-0.336,2.438-1.01l4.458-4.458l4.458,4.458c0.674,0.674,1.555,1.01,2.438,1.01
		s1.764-0.336,2.438-1.01c1.346-1.346,1.346-3.529,0-4.875L294.553,251.458z"/>
</g>
<g>
</g>
<g>
</g>
<g>
</g>
<g>
</g>
<g>
</g>
<g>
</g>
<g>
</g>
<g>
</g>
<g>
</g>
<g>
</g>
<g>
</g>
<g>
</g>
<g>
</g>
<g>
</g>
<g>
</g>
</svg>
