<?xml version="1.0" encoding="iso-8859-1"?>
<!-- Generator: Adobe Illustrator 19.0.0, SVG Export Plug-In . SVG Version: 6.00 Build 0)  -->
<svg version="1.1" id="Layer_1" xmlns="http://www.w3.org/2000/svg" xmlns:xlink="http://www.w3.org/1999/xlink" x="0px" y="0px"
	 viewBox="0 0 512 512" style="enable-background:new 0 0 512 512;" xml:space="preserve">
<circle style="fill:#FFEDB5;" cx="256" cy="256" r="256"/>
<path style="fill:#FEE187;" d="M512,256c0-2.181-0.028-4.355-0.083-6.523l-90.015-90.015l-29.134,24.638l-75.821-75.821
	l-122.434,4.637v95.927h22.704l-108.084,91.405l6.654,27.288L89.741,376.27l133.677,133.677C234.089,511.302,244.964,512,256,512
	C397.384,512,512,397.384,512,256z"/>
<path style="fill:#930000;" d="M302.832,180.148h-93.665c-11.247,0-20.399-9.152-20.399-20.401v-36.774
	c0-11.248,9.152-20.401,20.399-20.401h93.665c11.248,0,20.401,9.152,20.401,20.401v36.774
	C323.232,170.996,314.08,180.148,302.832,180.148z M209.455,159.461h93.091v-36.202h-93.091V159.461z"/>
<path style="fill:#700000;" d="M302.832,102.572h-47.406v20.687h47.12v36.202h-47.12v20.687h47.406
	c11.248,0,20.401-9.152,20.401-20.401v-36.774C323.232,111.725,314.08,102.572,302.832,102.572z"/>
<path style="fill:#D35933;" d="M409.716,381.845H102.284c-9.363,0-16.951-7.59-16.951-16.951V171.242
	c0-9.363,7.59-16.953,16.951-16.953h307.429c9.363,0,16.951,7.59,16.951,16.953v193.651
	C426.667,374.255,419.076,381.845,409.716,381.845z"/>
<g>
	<path style="fill:#B54324;" d="M409.716,154.29h-154.29v227.556h154.29c9.363,0,16.951-7.59,16.951-16.951V171.241
		C426.667,161.88,419.076,154.29,409.716,154.29z"/>
	<path style="fill:#B54324;" d="M426.667,171.241c0-9.363-7.59-16.951-16.951-16.951H102.284c-9.363,0-16.951,7.59-16.951,16.951
		v38.069c0,21.978,17.817,39.795,39.795,39.795h261.746c21.978,0,39.793-17.817,39.793-39.795V171.241z"/>
</g>
<path style="fill:#930000;" d="M409.716,154.29h-154.29v94.815h131.448c21.978,0,39.793-17.817,39.793-39.793v-38.071
	C426.667,161.88,419.076,154.29,409.716,154.29z"/>
<rect x="142.222" y="154.29" style="fill:#FF7F4F;" width="28.444" height="227.556"/>
<path style="fill:#930000;" d="M164.776,268.067h-16.663c-3.253,0-5.891-2.638-5.891-5.891v-45.108c0-3.253,2.638-5.891,5.891-5.891
	h16.663c3.253,0,5.891,2.638,5.891,5.891v45.108C170.667,265.43,168.029,268.067,164.776,268.067z"/>
<rect x="341.333" y="154.29" style="fill:#FF7F4F;" width="28.444" height="227.556"/>
<path style="fill:#700000;" d="M363.887,268.067h-16.663c-3.253,0-5.891-2.638-5.891-5.891v-45.108c0-3.253,2.638-5.891,5.891-5.891
	h16.663c3.253,0,5.891,2.638,5.891,5.891v45.108C369.778,265.43,367.14,268.067,363.887,268.067z"/>
<g>
</g>
<g>
</g>
<g>
</g>
<g>
</g>
<g>
</g>
<g>
</g>
<g>
</g>
<g>
</g>
<g>
</g>
<g>
</g>
<g>
</g>
<g>
</g>
<g>
</g>
<g>
</g>
<g>
</g>
</svg>
